<?xml version="1.0" encoding="UTF-8"?>
<svg xmlns="http://www.w3.org/2000/svg" viewBox="0 0 1373.73 1373.73">
  <g id="Layer_4" data-name="Layer 4">
    <path d="m1205.28,1063.02c-6-7.69-16.8-8.79-24-2.2-37.54,33.87-92.06,33.87-129.94-.18-40.63-36.79-96.52-43.75-142.97-20.86l111.81-268.66c2.4-8.97-1.89-18.49-10.11-21.96l-342.86-146.43c-4.11-1.64-8.57-1.64-12.68,0l-342.87,146.43c-8.23,3.48-12.52,12.99-10.11,21.96l111.73,268.66c-46.46-22.88-102.34-15.92-143.14,20.86-37.54,33.87-92.06,33.87-129.6,0-7.37-6.59-18.17-5.49-24.17,2.2-6.17,7.69-5.31,19.22,1.89,25.81,50.4,45.4,123.6,45.4,174,0,37.54-33.87,92.23-33.87,129.77,0,3.09,2.74,6.34,5.49,9.6,7.87l.52.56c1.03.73,2.23,1.46,3.43,2.2,45.26,31.67,103.71,31.13,148.63-1.28,4.11-2.74,8.06-5.85,11.83-9.33,18.69-16.84,41.66-25.26,64.46-25.44.17,0,.17.18.34.18s.17-.18.34-.18c22.8.18,45.77,8.61,64.46,25.44,3.77,3.48,7.71,6.59,11.66,9.33,45.26,32.76,104.4,32.94,149.83.56,1.03-.56,1.89-1.28,2.74-1.83,3.43-2.56,6.69-5.31,9.77-8.05,37.54-33.87,92.06-33.87,129.77.18,25.2,22.7,56.06,34.05,87.09,34.05s61.71-11.35,86.74-34.05c7.35-6.59,8.21-18.12,2.04-25.82h0Zm-527.31-35.14c-11.32-1.46-22.97-1.46-34.28,0l.04-243.4c0-10.07,7.71-18.31,17.15-18.31s17.15,8.23,17.15,18.31l-.06,243.4Z" style="fill: #01579b; stroke: #0288d1; stroke-miterlimit: 10; stroke-width: 4px;"/>
  </g>
  <g id="Layer_1_copy" data-name="Layer 1 copy">
    <g>
      <path d="m660.81,557.49c6.34,0,12.52,1.28,18.34,3.66l307.37,131.24v-38.64h0v-114.62c0-10.11-7.67-18.3-17.15-18.3s-17.15,8.2-17.15,18.3v80.44l-285.07-121.77c-4.11-1.64-8.57-1.64-12.68,0l-285.09,121.76v-80.44c0-10.11-7.67-18.3-17.14-18.3s-17.14,8.2-17.14,18.3v153.27l306.69-131.06c6.52-2.56,12.69-3.84,19.03-3.84h-.01Z" style="fill: #0288d1; stroke: #03a9f4; stroke-miterlimit: 10;"/>
      <path d="m660.81,452.93c6.34,0,12.52,1.28,18.34,3.66l221.66,94.64v-36.03h0v-92.88c0-10.11-7.67-18.31-17.15-18.31s-17.15,8.2-17.15,18.31v58.48l-188.58-80.54.12-210.49h74.89c9.43,0,17.15-8.23,17.15-18.31s-7.71-18.31-17.15-18.31h-184.18c-9.43,0-17.15,8.23-17.15,18.31s7.71,18.31,17.15,18.31h75.01l-.11,210.48-188.56,80.53v-58.48c0-10.11-7.67-18.31-17.14-18.31s-17.14,8.2-17.14,18.31v128.92l220.97-94.45c6.51-2.56,12.68-3.84,19.03-3.84h-.01Z" style="fill: #03a9f4; stroke: #0288d1; stroke-miterlimit: 10; stroke-width: 4px;"/>
    </g>
  </g>
</svg>
